# xmcd
#
# Track frame offsets:
#	150
#	16130
#	36972
#
# Disc length: 779 seconds
#
# Revision: 6
# Processed by: cddbd v1.5.2PL0 Copyright (c) Steve Scherf et al.
# Submitted via: audiograbber 1.83.01
#
DISCID=19030903
DTITLE=Donna Summer - I Don´t Wanna Get Hurt
DYEAR=1989
DGENRE=Pop
TTITLE0=I Don´t Wanna Get Hurt
TTITLE1=Dinner With Gershwin
TTITLE2=I Don´t Wanna Get Hurt (Instrumental)
EXTD=
EXTT0=
EXTT1=
EXTT2=
PLAYORDER=
